<svg width="1561" height="1932" viewBox="0 0 1561 1932" fill="none" xmlns="http://www.w3.org/2000/svg">
<path opacity="0.02" d="M336.153 209.113C214.19 119.973 238.132 14.6839 265.348 -26.8181L639.421 -674.73L2868.78 612.391L2494.71 1260.3C2472.37 1304.62 2393.16 1378 2254.98 1316.95C2082.26 1240.63 2051.18 1304.61 1997.56 1339.97C1943.95 1375.34 1875.68 1402.24 1759.33 1282.4C1642.99 1162.57 1514.37 1070.75 1356.31 1104.33C1229.87 1131.2 1144.44 1093.19 1114.82 1076.09C1085.21 1058.99 1009.57 1004.01 969.618 881.076C919.675 727.408 775.851 661.926 613.895 621.084C451.939 580.243 441.107 507.671 444.922 443.556C448.738 379.442 488.605 320.538 336.153 209.113Z" fill="black"/>
<path d="M467.097 71.0378C381.084 -28.5414 422.061 -113.198 453.301 -143.078L897.886 -619.535L2537.3 910.207L2092.71 1386.66C2065.06 1419.89 1983.44 1466.63 1878.15 1387.7C1746.54 1289.05 1707.62 1337.24 1655.18 1356.73C1602.73 1376.22 1539.52 1385.66 1464.3 1261.13C1389.07 1136.6 1297.93 1033.45 1157.21 1030.94C1044.63 1028.93 979.587 979.904 957.811 959.584C936.034 939.265 882.632 877.762 872.845 765.594C860.611 625.383 751.403 541.592 621.972 475.155C492.54 408.717 497.587 345.004 513.405 291.341C529.223 237.678 574.615 195.512 467.097 71.0378Z" fill="black"/>
<path d="M467.097 71.0378C381.084 -28.5414 422.061 -113.198 453.301 -143.078L897.886 -619.535L2537.3 910.207L2092.71 1386.66C2065.06 1419.89 1983.44 1466.63 1878.15 1387.7C1746.54 1289.05 1707.62 1337.24 1655.18 1356.73C1602.73 1376.22 1539.52 1385.66 1464.3 1261.13C1389.07 1136.6 1297.93 1033.45 1157.21 1030.94C1044.63 1028.93 979.587 979.904 957.811 959.584C936.034 939.265 882.632 877.762 872.845 765.594C860.611 625.383 751.403 541.592 621.972 475.155C492.54 408.717 497.587 345.004 513.405 291.341C529.223 237.678 574.615 195.512 467.097 71.0378Z" fill="url(#paint0_linear_204_10)"/>
<path d="M586.177 -663.216C552.033 -790.293 625.75 -848.702 666.877 -862.021L1274.43 -1097.7L2085.36 992.795L1477.81 1228.47C1438.46 1246.37 1344.63 1252.95 1284.15 1136.09C1208.55 990.018 1152.53 1016.49 1096.84 1011.23C1041.14 1005.97 980.112 986.98 966.533 842.129C952.955 697.277 915.75 564.751 790.127 501.287C689.629 450.516 652.378 378.082 641.606 350.314C630.835 322.546 609.496 243.939 649.467 138.678C699.431 7.10198 637.534 -115.846 549.88 -231.963C462.226 -348.08 494.48 -403.257 532.062 -444.699C569.645 -486.141 628.858 -504.37 586.177 -663.216Z" fill="black"/>
<path d="M586.177 -663.216C552.033 -790.293 625.75 -848.702 666.877 -862.021L1274.43 -1097.7L2085.36 992.795L1477.81 1228.47C1438.46 1246.37 1344.63 1252.95 1284.15 1136.09C1208.55 990.018 1152.53 1016.49 1096.84 1011.23C1041.14 1005.97 980.112 986.98 966.533 842.129C952.955 697.277 915.75 564.751 790.127 501.287C689.629 450.516 652.378 378.082 641.606 350.314C630.835 322.546 609.496 243.939 649.467 138.678C699.431 7.10198 637.534 -115.846 549.88 -231.963C462.226 -348.08 494.48 -403.257 532.062 -444.699C569.645 -486.141 628.858 -504.37 586.177 -663.216Z" fill="url(#paint1_linear_204_10)"/>
<path d="M824.002 -93.6856C770.822 -214.045 834.738 -283.042 873.343 -302.495L1437.7 -628.327L2558.84 1313.54L2394.48 1489.37C2358.33 1513.08 2266.62 1533.93 2188.97 1427.69C2091.92 1294.9 2040.61 1329.63 1984.76 1332.95C1928.92 1336.27 1539.5 1427 1430.13 1325.77C1323.36 1226.95 1337.52 1069.42 1203.67 1025.92C1096.59 991.118 1048.69 925.234 1033.8 899.44C1018.91 873.646 985.797 799.228 1009.2 689.092C1038.45 551.422 958.476 439.388 854.092 338.045C749.709 236.701 773.144 177.24 803.946 130.537C834.748 83.8341 890.476 56.7633 824.002 -93.6856Z" fill="black"/>
<path d="M824.002 -93.6856C770.822 -214.045 834.738 -283.042 873.343 -302.495L1437.7 -628.327L2558.84 1313.54L2394.48 1489.37C2358.33 1513.08 2266.62 1533.93 2188.97 1427.69C2091.92 1294.9 2040.61 1329.63 1984.76 1332.95C1928.92 1336.27 1539.5 1427 1430.13 1325.77C1323.36 1226.95 1337.52 1069.42 1203.67 1025.92C1096.59 991.118 1048.69 925.234 1033.8 899.44C1018.91 873.646 985.797 799.228 1009.2 689.092C1038.45 551.422 958.476 439.388 854.092 338.045C749.709 236.701 773.144 177.24 803.946 130.537C834.748 83.8341 890.476 56.7633 824.002 -93.6856Z" fill="url(#paint2_linear_204_10)"/>
<defs>
<linearGradient id="paint0_linear_204_10" x1="-350.041" y1="-411.364" x2="1641.03" y2="1193.9" gradientUnits="userSpaceOnUse">
<stop stop-color="#ED374D"/>
<stop offset="0.505208" stop-color="#FA793F"/>
<stop offset="1" stop-color="#F7F651"/>
</linearGradient>
<linearGradient id="paint1_linear_204_10" x1="703.718" y1="-761.136" x2="1378.14" y2="1749.12" gradientUnits="userSpaceOnUse">
<stop stop-color="#ED374D"/>
<stop offset="0.505208" stop-color="#FA793F"/>
<stop offset="1" stop-color="#F7F651"/>
</linearGradient>
<linearGradient id="paint2_linear_204_10" x1="1388.13" y1="-599.877" x2="1674.27" y2="2118.42" gradientUnits="userSpaceOnUse">
<stop stop-color="#ED374D"/>
<stop offset="0.505208" stop-color="#FA793F"/>
<stop offset="1" stop-color="#F7F651"/>
</linearGradient>
</defs>
</svg>
